<?xml version="1.0" standalone="no"?>
<!DOCTYPE svg PUBLIC "-//W3C//DTD SVG 1.1//EN" "http://www.w3.org/Graphics/SVG/1.1/DTD/svg11.dtd" >
<svg>
<metadata>
Created by FontForge 20110222 at Mon Mar  7 12:06:55 2011
 By www-data
</metadata>
<defs>
<font id="matrix" horiz-adv-x="1821" >
  <font-face 
    font-family="matrix"
    font-weight="400"
    font-stretch="normal"
    units-per-em="2048"
    panose-1="2 11 6 3 5 3 2 2 2 4"
    ascent="1638"
    descent="-410"
    cap-height="285"
    bbox="-922 -242 2834 2110"
    underline-thickness="0"
    underline-position="0"
    unicode-range="U+0020-007E"
  />
    <missing-glyph />
    <glyph glyph-name="space" unicode=" " horiz-adv-x="2048" 
 />
    <glyph glyph-name="M" unicode="M" horiz-adv-x="478" 
d="M281 7l-135 224v-110v-49h-7v-50v-48h-76v8h13q23 0 33 11q6 6 6 29v217q0 17 -5 27q-5 5 -14 10q-14 4 -33 4v7h52q-1 0 -1 0.5v0.5q-10 11 -33 11h-34v7l99 1v-20h21l134 -219l131 219h24v-48v-184v-49l-76 1v7h13q23 0 33 11q6 6 6 30v188l-142 -236h-9z" />
    <glyph glyph-name="A" unicode="A" horiz-adv-x="757" 
d="M277 60h-142l-25 -44q-9 -16 -9 -23q0 -6 8 -12q7 -4 34 -6v-8h-116v8q23 3 30 8q14 12 31 40l99 172h-324v8h374l-7 11h42l64 -118h-23l42 -76q11 -21 28 -36q1 0 4 -3t12 -6h322v-8h-448v8q24 2 30 6q7 5 7 11q0 10 -11 28zM270 76l-63 113l-64 -113h127z" />
    <glyph glyph-name="T" unicode="T" horiz-adv-x="378" 
d="M356 278l4 -66h-11q-3 14 -8 25q-9 10 -22 17q-15 6 -37 6h-52v-215q0 -25 7 -32q10 -9 32 -9h13v-6l-95 -1v-30h-71v8h13q22 0 33 11q6 6 6 23v239h-45q-26 0 -36 -3q-15 -3 -24 -15q-11 -11 -12 -30h-10l4 66h142v11z" />
    <glyph glyph-name="I" unicode="I" horiz-adv-x="311" 
d="M297 -18v-9h-253v2h88v7h13q24 0 34 11q6 7 6 34v203q0 23 -3 32q-5 6 -12 9q-12 6 -25 6h-13v8h165v-8h-14q-22 0 -33 -11q-6 -8 -6 -36v-203q0 -24 3 -30q2 -4 11 -10q10 -5 25 -5h14z" />
    <glyph glyph-name="X" unicode="X" horiz-adv-x="611" 
d="M342 147l-37 42q-30 33 -50 43t-48 10v5h-159v3h330v-8q-22 0 -30 -5t-8 -10q0 -9 13 -23l50 -57l-22 -22l79 -90q29 -34 49 -46q15 -9 40 -11v-7h-158v7q16 0 24 3q3 1 9 5q9 14 9 10q0 1 -2 9q-2 1 -5.5 5.5t-9.5 12.5l-63 72l-82 -77q-6 -6 -10 -10.5t-5 -5.5
q-2 -4 -2 -8q0 -6 7 -11q5 -3 28 -5v-7h-130v7q12 2 23 5q14 4 32 14q16 8 35 27l93 86l-35 37h17.5h17.5zM417 147l58 56q16 19 14 15q2 6 2 9q0 4 -3 7q-4 4 -10 7q-5 1 -26 1v8h130v-8q-15 0 -25 -3q-12 -4 -27 -13q-11 -7 -34 -30l-51 -49h-28z" />
    <glyph glyph-name="R" unicode="R" horiz-adv-x="372" 
d="M355 -33h-121l-124 134h-9h-7v-85q0 -25 7 -32q10 -9 31 -9h15v-8h-74v107h-217v6l217 1v166h50q58 0 87 -6q18 -6 26 -10v-110q-22 -10 -50 -15l75 -83q24 -25 45 -36q19 -9 49 -12v-8zM94 111h4h5h2.5h3.5q53 0 79 17q27 16 27 44q0 26 -21 43q-22 16 -58 16
q-15 0 -42 -3v-117z" />
    <glyph glyph-name="B" unicode="B" horiz-adv-x="450" 
d="M360 108q20 -5 32 -11v-106q-14 -6 -18 -8q-20 -8 -71 -8h-133v7h10q18 0 26 10q5 8 5 28v170q0 27 -6 33q-9 9 -25 9h-123v5h235q31 0 55 -5q18 -5 32 -12l-7 16q10 -2 14 -4q26 -9 36 -34q7 -19 2 -39q-4 -15 -11 -23l-5 13q-4 -10 -10 -18q-15 -17 -38 -23zM251 118
q5 0 17 -2h10.5h11.5q31 0 46 6t23 18t8 28q0 24 -20 39q-21 17 -59 17q-19 0 -37 -5v-101zM251 -6q20 -5 47 -5q37 0 58 14q20 16 20 39q0 15 -9 30q-10 14 -29 22t-50 8h-12.5h-10.5t-8.5 -0.5t-5.5 -0.5v-107z" />
    <glyph glyph-name="C" unicode="C" horiz-adv-x="350" 
d="M160 86q1 -28 10 -46q10 -24 31 -37q22 -11 48 -11q21 0 41 8q19 12 39 40l5 -4q-18 -32 -42 -45q-24 -15 -57 -15q-59 0 -91 43q-23 28 -24 67h-21v4.5v5.5q0 35 16 65q17 31 44 47t62 16q26 0 51 -13q8 -4 10 -4q4 0 8 4q5 5 7 13h6l5 -81h-5q-11 36 -31 52
q-21 16 -49 16q-24 0 -43 -12q-21 -14 -30 -38q-11 -29 -11 -66v-5v-4h21z" />
    <glyph glyph-name="D" unicode="D" horiz-adv-x="411" 
d="M94 -27h-59v6h10q18 0 26 10q5 7 5 25v81h6v115h69q62 0 97 -12q34 -13 53 -40q21 -29 21 -66q0 -50 -37 -83q-24 -20 -65 -28l7 21q10 6 14 10q33 30 33 78q0 49 -33 78t-82 29q-17 0 -43 -5v-137v0v-41q0 -18 5 -25q8 -12 25 -12h246v-4h-298v0z" />
    <glyph glyph-name="E" unicode="E" horiz-adv-x="334" 
d="M162 143h31q24 0 33 6q10 7 12 28h8v-83h-8q-3 16 -6 23q-3 5 -12 9q-12 4 -27 4h-50v-69v0v0h-12v-10q0 -17 1 -19q2 -4 6 -6q6 -2 16 -2h49q23 0 35 3q10 2 20 11q13 10 27 33h8l-24 -60h-219v7h10q11 0 19 4q6 3 9 8q2 8 2 23v155q0 23 -5 28q-7 7 -25 7h-10v7h59v14
h210v-7h-176v-7h126l3 -52h-8q-5 20 -10 25q-5 7 -16 11q-8 3 -29 3h-66v-88h19v-6z" />
    <glyph glyph-name="F" unicode="F" horiz-adv-x="223" 
d="M79 241v-94h52q18 0 26 6q7 6 11 26h8v-80h-8q0 14 -4 20q-6 7 -11 10q-8 3 -22 3h-52v-75q0 -18 3 -24q1 -4 9 -7q8 -4 19 -4h10v-7h-75v144h-150v3h150v92h165l3 -53h-8q-5 15 -12 25q-9 8 -18 11q-14 4 -33 4h-63z" />
    <glyph glyph-name="G" unicode="G" horiz-adv-x="539" 
d="M275 259l8 -75h-8q-11 27 -28 42q-26 21 -66 21q-54 0 -82 -36q-24 -32 -24 -73q0 -35 16 -62q15 -29 41 -41q24 -13 52 -13q16 0 31 3q11 2 26 9v16q0 17 -3 23q-4 4 -11 9q-4 2 -24 2v7h311v-3h-195q-33 -12 -33 -13q-4 -6 -4 -25v-73q-23 -9 -41 -14v19v34
q-2 -1 -5 -1q-23 -6 -52 -6q-83 0 -125 45q-32 32 -32 77q0 31 18 60q19 32 58 53q31 15 74 15q11 0 29 -2q12 -2 36 -9q9 -4 15 -4q4 0 7 3q2 2 4 12h7z" />
    <glyph glyph-name="H" unicode="H" horiz-adv-x="270" 
d="M86 135h132v101q0 18 -3 24q-1 2 -8 8q-12 4 -19 4h-10v6h80v-303h-80v6h10q17 0 25 9q5 5 5 26v106h-132v-72q0 -20 3 -24q1 -5 8 -8q9 -4 20 -4h10v-7h-80v239h80v-6h-10q-6 0 -20 -4q-6 -3 -9 -9q-2 -8 -2 -23v-69z" />
    <glyph glyph-name="J" unicode="J" horiz-adv-x="418" 
d="M150 257h249v-3h-180l-35 -12q-5 -7 -5 -27v-116q0 -29 -7 -44q-7 -18 -24 -29q-16 -13 -42 -13q-19 0 -31 8q-11 9 -11 19q0 8 5 13q7 6 16 6q6 0 12 -4q7 -6 14 -20q4 -9 12 -9q6 0 11 6q5 5 5 20v132h11v73z" />
    <glyph glyph-name="K" unicode="K" horiz-adv-x="565" 
d="M132 144l105 -88q26 -22 44 -29q17 -11 32 -13h226v-3h-357v7q12 0 18 3q5 3 5 8t-2 7q-1 2 -13 13l-113 81v-77q0 -20 2 -24q0 -3 19.5 -7t23.5 -4h10v-7h-80v239h80v-7h-10q-10 0 -19 -4q-7 -4 -9 -8q-2 -8 -2 -23v-73q1 1 29 22q62 48 75 64q6 6 6 12q0 3 -5 7
q-5 3 -15 3h-6v7h104v-7q-8 0 -16 -2q-5 -1 -19 -7q-11 -6 -27 -18q-5 -3 -42 -36z" />
    <glyph glyph-name="L" unicode="L" horiz-adv-x="342" 
d="M319 77l7 -1l-24 -65h-383v3h169q22 2 30 13q4 5 4 27v55h-17v112q0 16 -2 21q-3 1 -11 1h-11v7h18q-9 7 -24 7h-11v7h64v-14h82v-7q-18 1 -32 -3q-10 -5 -12 -10q-3 -5 -3 -26v-150q0 -16 3 -20q3 -5 8 -6q6 -2 32 -2h21q28 0 46 4q13 4 24 15q11 10 22 32z" />
    <glyph glyph-name="N" unicode="N" horiz-adv-x="612" 
d="M71 229h77l174 -156v137q0 22 -6 28q-7 7 -25 7h-9v7h58v-119v0v-98h243v-3l-243 -1v-22h-7l-143 130l-45 -1v-84q0 -21 6 -27q8 -8 25 -8h10v-6h-100v6h10q17 0 26 10q5 5 5 25v144q-7 7 -19 16q-9 4 -19 7q-8 2 -18 2v6z" />
    <glyph glyph-name="O" unicode="O" horiz-adv-x="337" 
d="M188 242q-38 0 -61 -23q-29 -29 -29 -87q0 -59 30 -90q21 -23 55 -24v8q39 1 64 26q26 27 26 83q0 61 -29 92q-20 21 -54 23v-8h-1.5h-0.5zM190 14v-8h-1.5h-0.5q-61 0 -98 35q-40 34 -40 90q0 57 46 93q37 29 87 31v8h0.5h1.5q56 0 96 -35t40 -88q0 -54 -41 -90
q-36 -33 -90 -36z" />
    <glyph glyph-name="P" unicode="P" horiz-adv-x="280" 
d="M131 133q8 -1 20 -3q4 0 8 -0.5t7 -0.5q21 0 38 15q15 13 15 36q0 16 -7 29q-8 14 -22 20q-16 7 -31 7q-4 0 -28 -4v-99zM92 117v0v23q0 20 -6 28q-9 8 -17.5 9t-11.5 3h-168v2h223v68h43q39 0 60 -7q20 -6 37 -22q15 -15 15 -37q0 -30 -23 -48t-65 -18q-14 0 -22 1
q-19 2 -26 4v-70q0 -22 6 -28q8 -7 24 -7h11v-7h-80v106z" />
    <glyph glyph-name="Q" unicode="Q" horiz-adv-x="355" 
d="M237 9q10 -10 26 -19q22 -13 56 -17v-6q-15 1 -40.5 3.5t-41.5 6.5q-31 9 -62 24q-4 2 -8 3.5t-7 4.5v0q-29 10 -46 21q-25 17 -40 42q-14 26 -14 59q0 52 41 89q40 35 100 35q57 0 97 -35q41 -37 41 -90q0 -44 -29 -77q-30 -33 -73 -44zM215 242q-38 0 -62 -23
q-29 -29 -29 -88q0 -58 30 -89l7 -7q21 0 46.5 -0.5l25.5 -0.5q2 -3 4 -6.5t5 -6.5q20 5 37 21q28 29 28 84q0 42 -16 72q-13 23 -32 33q-21 11 -44 11z" />
    <glyph glyph-name="S" unicode="S" horiz-adv-x="262" 
d="M232 263v-83h-8q-5 26 -14 38q-9 13 -28 22q-18 9 -37 9q-21 0 -36 -11q-14 -13 -14 -26q0 -11 9 -20q12 -13 62 -35q41 -19 54 -28q14 -9 22 -22q8 -12 8 -27q0 -28 -25 -47q-25 -20 -64 -20q-8 0 -13 1h-179v4h176v10q3 -1 11 -1q27 0 42 12q15 10 15 27q0 9 -6 18
q-5 7 -18 17q-13 7 -44 22q-27 11 -52 27q-9 5 -16 14v73q5 5 8 7q23 19 60 19q22 0 48 -9q8 -5 16 -5q6 0 9 3q3 2 6 11h8z" />
    <glyph glyph-name="U" unicode="U" horiz-adv-x="320" 
d="M304 228l1 -44v-75q0 -36 -9 -55q-10 -21 -33 -34q-24 -14 -68 -14q-48 0 -71 13q-24 13 -34 37q-7 17 -7 58v110q0 22 -7 29q-8 6 -23 6h-11v7h123v-7h-11q-18 0 -25 -9q-5 -5 -5 -26v-120q0 -14 3 -32q3 -21 11 -28q6 -9 23 -17q15 -6 36 -6q30 0 50 10q22 10 31 26
q8 17 8 54v14v0v61q-4 -1 -10 -4q-9 -8 -9 -26v-10h-6v82h43z" />
    <glyph glyph-name="W" unicode="W" horiz-adv-x="425" 
d="M405 257v-6q-11 0 -18 -3q-9 -7 -13 -13q-3 -4 -13 -29l-79 -193h-9l-42 98l-57 -135h-7l-85 198q-8 20 -12 26q-6 7 -11 10q-8 3 -20 3v7h105v-7h-5q-12 0 -17 -4q-6 -5 -6 -10q0 -8 10 -29l56 -134l40 98l-14 32v0l-17 39l-1 3l-6 16q2 -4 -10 16q-4 4 -7 5
q-18 9 -17 9h-233v3h338v-6h-8q-11 0 -17 -4q-6 -5 -6 -12q0 -6 10 -31l54 -130l55 132q9 21 9 30q0 3 -3 8q-2 2 -8 4q-8 3 -21 3v6h85z" />
    <glyph glyph-name="V" unicode="V" horiz-adv-x="318" 
d="M295 220v-7q-14 -2 -19 -7q-10 -9 -17 -24l-78 -175l-44 95l-15 -6l-42 88q-6 13 -10 18q-3 4 -10 8q-8 3 -18 3v7h37l-0.5 0.5l-0.5 0.5q-5 5 -11 8t-17 3v6h97v-6q-18 -2 -21 -5q-5 -4 -5 -7h19v-7q-12 0 -18 -3q1 -5 7 -17l61 -129l55 124q2 8 2 10q0 4 -5 9
q-7 4 -18 6h-1h-2v7h33q-2 4 -5 6q-5 4 -17 6h-2h-1v6h74v-6q-11 -2 -20 -7l-5 -5h17z" />
    <glyph glyph-name="Y" unicode="Y" horiz-adv-x="929" 
d="M509 86h-601v9h462q12 3 35 4.5t43 25.5q12 15 12 66v143l-198 254q-36 46 -48 56q-13 12 -52 27q-10 5 -30 5v16h309v-16h-17q-22 0 -45 -10q-22 -11 -22 -30q0 -16 33 -58l149 -194v-56l135 178q32 42 32 63q0 13 -7 22q-9 10 -22 16q-17 5 -44 5v16h252v-16h-14
q-15 0 -40 -10q-28 -12 -49 -30q-19 -16 -53 -62l-174 -231v-152q0 -57 15 -69q19 -19 63 -19h23v-17h-147v64z" />
    <glyph glyph-name="Z" unicode="Z" horiz-adv-x="858" 
d="M809 635l-475 -570h297q68 0 105 25q35 25 64 101l18 -2l-34 -161h-588v17l219 263h-754l-1 19h772l227 271h-304v37h454z" />
    <glyph glyph-name="zero" unicode="0" horiz-adv-x="1924" 
d="M780 929q0 -354 116 -575q96 -189 285 -189q90 0 189 61q36 22 70 64l-60 85q28 46 47 102q77 217 77 611q0 286 -80 488q-62 146 -158 205q-68 43 -165 43q-113 0 -203 -77q-123 -109 -164 -330q-3 -10 -4.5 -19.5t-3.5 -17.5l80 -114q-26 -164 -26 -337zM1509 275
l51 -72q-12 -8 -41 -23q-176 -95 -343 -95q-326 0 -542 290q-183 241 -183 585q0 294 118 505q13 23 18 29l-64 89q108 158 268 241q150 83 312 83q261 0 470 -201q260 -249 260 -674q0 -302 -114 -504q-86 -158 -210 -253z" />
    <glyph glyph-name="one" unicode="1" horiz-adv-x="2096" 
d="M275 1333l453 166h46v-513h-1v-216h1224v-26h-1224v-673h-466v38q133 1 172 17q38 14 52 40q16 23 16 151v756q0 151 -15 196q-8 30 -34 48q-25 16 -61 16q-51 0 -142 -32z" />
    <glyph glyph-name="two" unicode="2" horiz-adv-x="1675" 
d="M1596 278l-108 -223h-1111q234 161 327.5 238.5t192.5 181.5q197 212 197 385q0 135 -109 219q-107 86 -259 86q-138 0 -247 -60q-111 -63 -162 -178h-51q34 192 177 294q140 102 356 102q227 0 378 -110q16 -11 46 -36v-494q-98 -138 -290 -294q-171 -141 -202 -168.5
t-73 -56.5h487q136 0 208 9q60 7 109 34q47 25 83 71h51z" />
    <glyph glyph-name="three" unicode="3" horiz-adv-x="1520" 
d="M1268 844q54 -32 93 -72q87 -95 87 -222q0 -181 -153 -314q-200 -174 -582 -174q-187 0 -257 35q-68 36 -68 76q0 30 32 52q35 23 78 23q39 0 71 -8q25 -7 106 -37q75 -32 114 -39q51 -12 108 -12q139 0 244 82q104 78 104 193q0 81 -48 158q-36 57 -78 89
q-60 40 -162 75q-110 33 -211 33h-44v31q105 -7 230.5 34t125.5 170q0 107 -89 172q-89 66 -220 66q-213 0 -356 -172l-45 17q78 141 201 218q120 78 303 78q170 0 281 -65v-487h135z" />
    <glyph glyph-name="four" unicode="4" horiz-adv-x="1405" 
d="M1113 580v695l-655 -695h655zM1339 63h-124v-4h-288v38q96 1 129 17q28 16 40 40q11 23 11 121h6v216h-790v74l865 927h151v-714.5v-714.5z" />
    <glyph glyph-name="five" unicode="5" horiz-adv-x="1293" 
d="M1232 1448l-107 -176h-561l-122 -188q360 -39 577 -202q183 -141 183 -332q0 -110 -60 -204q-59 -92 -150 -159q-94 -70 -203 -106q-69 -28 -161 -43v91q158 4 274 92q121 92 121 222q0 126 -109 237q-113 112 -299 170q-145 45 -408 55l127 194l-62 136l296 408l79 -191
l-3 -4h588z" />
    <glyph glyph-name="six" unicode="6" horiz-adv-x="1378" 
d="M540 769q-25 -137 -25 -225q0 -100 49 -215q49 -118 146 -185q68 -49 170 -49q120 0 214 85q94 83 94 243q0 177 -94 304q-93 129 -266 129q-53 0 -111 -16q-64 -18 -177 -71zM-922 629h1177q4 179 99 340q98 167 288 301q184 130 357 177q166 43 312 45v-47
q-119 -13 -212 -45q-115 -43 -227 -125q-115 -86 -185 -187q-75 -102 -123 -244q193 102 397 102q192 0 331 -115q21 -18 19 -16v-579q-6 -6 -10.5 -11.5t-9.5 -11.5q-172 -175 -451 -175q-191 0 -325 95q-259 184 -261 472h-1176v24z" />
    <glyph glyph-name="seven" unicode="7" horiz-adv-x="1401" 
d="M336 1436h999v-39l-621 -1390h-154l56 127l71 -1l526 1204l-209 2l-34 -72h-366q-159 0 -222 -27q-119 -50 -185 -148l-40 13z" />
    <glyph glyph-name="eight" unicode="8" horiz-adv-x="1273" 
d="M549 741q-168 104 -247 177v419q9 6 18 14t20 15q138 98 373 98q223 0 362 -91q138 -92 138 -211q0 -78 -74 -159q-76 -83 -310 -192q248 -145 321 -222l3 -3v-432q-32 -28 -48 -39q-151 -104 -394 -104q-267 0 -414 125q-119 102 -119 218q0 92 85 184q81 91 286 203z
M765 851q165 111 209 176q43 63 43 146q0 108 -80 170q-82 62 -222 62q-139 0 -228 -62q-88 -60 -88 -142q0 -54 37 -107q34 -54 104 -102zM613 702q-110 -70 -169 -158q-55 -88 -55 -184q0 -134 97 -214q99 -80 247 -80q147 0 239 63q88 64 88 153q0 75 -52 133
q-97 110 -395 287z" />
    <glyph glyph-name="nine" unicode="9" horiz-adv-x="1252" 
d="M907 658q26 127 26 214q0 97 -46 216q-47 116 -129 178q-85 63 -189 63q-121 0 -215 -84q-91 -84 -91 -245q0 -219 122 -341q89 -89 220 -89q67 0 151 23q89 23 151 65zM558 134q64 48 128 116q142 148 200 331q-216 -105 -391 -105q-199 0 -337 115q-2 1 -6 5v617
q1 3 6 8q170 175 442 175q227 0 393 -144q200 -175 200 -435q0 -234 -152 -436q-153 -200 -425 -334q-15 -7 -29.5 -14t-28.5 -13v114z" />
    <glyph glyph-name="colon" unicode=":" horiz-adv-x="470" 
d="M309 420h-27l-121 836q-8 60 -8 82q0 63 46 105q38 33 94 37v108h0.5h0.5q61 0 110 -39q44 -41 44 -117q0 -33 -5 -70l-124 -836h-10v-106zM309 127v-107h-2v0q-62 0 -108 34q-45 33 -45 82q0 46 45 79q39 30 94 33v106q63 0 107 -33q44 -35 44 -81t-44 -80
q-42 -31 -91 -33z" />
    <glyph glyph-name="semicolon" unicode=";" horiz-adv-x="1138" 
d="M593 250q41 -10 69 -30q44 -35 44 -82q0 -48 -44 -82q-49 -33 -109 -33q-61 0 -109 33q-44 34 -44 82q0 47 44 82q39 29 89 32q11 55 25 92q34 83 140 236q83 118 107 180q26 66 26 126q0 131 -94 209q-94 77 -227 77q-119 0 -188 -42q-70 -42 -70 -93q0 -35 42 -94
q42 -56 42 -84q0 -38 -33 -63q-32 -24 -76 -24q-22 0 -38 4v351q5 3 9 6t10 6q131 90 361 90q284 0 416 -123q99 -91 99 -201q0 -77 -44 -156q-46 -82 -170 -187q-198 -167 -243 -240q-17 -25 -34 -72z" />
    <glyph glyph-name="at" unicode="@" horiz-adv-x="2202" 
d="M1303 923q-55 0 -116 -46q-87 -68 -148 -181q-45 -83 -45 -134q0 -14 2 -20q-2 0 4 -3q26 -22 60 -22q48 0 94 25q48 24 103 78q52 49 78 105q43 90 43 150q0 11 -3 20q-1 3 -3 5q-31 23 -69 23zM1455 518q72 4 182 60q114 63 195 199q80 137 80 286q0 102 -46 193
q-4 4 -7.5 9t-6.5 10q-90 119 -260 186q-170 65 -369 65q-256 0 -477 -103q-222 -104 -349 -294q-128 -191 -128 -400q0 -150 69 -279q10 -15 13 -18q111 -159 318 -238q200 -80 440 -80q292 0 529 117q236 117 364 344h66q-8 -17 -25 -51h55q-99 -230 -364 -371
q-265 -142 -600 -142q-268 0 -491 94q-229 93 -353 266q-24 32 -50 78q-107 164 -107 353q0 114 34.5 224.5t103.5 186.5q79 88 170.5 166.5t216.5 132.5q250 107 527 107q228 0 416 -71q183 -72 282 -209q19 -29 38 -63q89 -131 89 -280q0 -154 -90 -302
q-93 -152 -231 -220q-75 -36 -183.5 -63t-175.5 21q-22 14 -29 41q-22 19 -22 53q0 12 1 19q-92 -78 -148 -103q-68 -31 -120 -31q-56 0 -97 37q-23 18 -34 48q-30 34 -30 85q0 82 73 187q71 102 192 169q87 47 158 47q51 0 85 -19q31 -17 44 -54q1 -3 4 -4l25 61l119 13
l-15 -39l37 3l-90 -229q-56 -146 -60 -164q0 -33 32 -34z" />
    <glyph glyph-name="numbersign" unicode="#" horiz-adv-x="1544" 
d="M271 40l128 470h-235v85h257l94 354h-351v82h378l125 471h114l-125 -471h465l132 471h115l-131 -471h234v-82h-255l-95 -354h350v-85h-375l-127 -470h-111l124 470h-467l-130 -470h-114z" />
    <glyph glyph-name="dollar" unicode="$" horiz-adv-x="1355" 
d="M748 66q105 13 158 37q77 36 122 96q44 57 44 123q0 69 -53 130q-56 61 -271 172v-558zM173 741h61q3 -36 12.5 -125t24 -185t35 -176.5t46.5 -98.5q103 -77 308 -90v602q-277 130 -381 224v427q9 8 22 16q121 94 359 116v95h88v-95q107 -6 190 -20q22 -4 264 -71v-309
h-53q-18 163 -114 240q-98 76 -287 90v-525q347 -183 445 -267q98 -88 98 -215q0 -142 -144 -251q-145 -110 -399 -123v-133h-88v133q-126 1 -241 20q-108 17 -246 59v662z" />
    <glyph glyph-name="percent" unicode="%" horiz-adv-x="2975" 
d="M1769 1699q-15 -63 32 -122q41 -57 162 -93l305 281q-54 26 -146 45q-189 38 -279 -10q-61 -34 -74 -101zM1032 138q67 -14 134 38q64 49 101 245q25 141 9 222q-3 14 -4 17l-369 -337q5 -70 31 -114q33 -61 98 -71zM1180 766q-16 6 -26 7q-64 11 -121 -32
q-73 -58 -107 -207zM2133 1449q125 -14 189 23q62 35 74 100q9 53 -19 102zM340 -3l374 343q-30 87 -11 187q33 176 164 253q134 75 291 45q33 -6 67 -17l589 541q-73 71 -93 165q-27 97 -6 196q18 94 85 181q64 86 162 119q95 33 201 14q158 -33 234 -142l248 228l189 -18
l-379 -349q16 -81 -2 -179q-20 -100 -84 -182q-64 -83 -160 -119q-98 -37 -204 -15q-39 8 -68 22l-582 -533q74 -59 109 -151q37 -100 18 -202q-21 -110 -90 -187q-73 -82 -173 -107q-102 -27 -202 -8q-156 28 -236 129l-252 -231z" />
    <glyph glyph-name="asciicircum" unicode="^" horiz-adv-x="1486" 
d="M831 1847l585 -741h-126l-324 413l-310 2l-330 -415h-129l592 741h42z" />
    <glyph glyph-name="underscore" unicode="_" horiz-adv-x="2294" 
d="M416 557q189 -195 252 -270q35 -44 74.5 -96.5t81.5 -115.5q160 69 247 157q83 88 82 187q0 110 -95 193t-257 83q-87 0 -166 -27q-83 -27 -219 -111zM992 907q168 60 255 138q84 79 84 172q0 76 -61 124q-62 48 -152 48q-121 0 -181 -62q-61 -63 -61 -123q0 -49 23 -113
q23 -62 93 -184zM1517 934h255v-232q-22 -28 -33 -43q-119 -162 -272 -306q121 -108 219 -150q91 -43 194 -43q97 0 161 39q66 38 93 114l51 -28q-52 -148 -164 -215q-115 -70 -263 -70q-113 0 -228 47q-110 40 -254 154q-170 -112 -307 -157q-139 -44 -293 -44
q-226 0 -359 91q-134 90 -134 218q0 123 120 248q117 123 450 258q-69 111 -89 177q-24 67 -24 131q0 177 173 269q138 72 308 72q163 0 267 -72q103 -75 103 -179q0 -110 -101 -192q-92 -80 -351 -181q164 -224 363 -428q242 216 242 366q0 46 -40 85q-29 27 -87 32v39z
" />
    <glyph glyph-name="asterisk" unicode="*" horiz-adv-x="1573" 
d="M613 1707q-7 75 -39 141q-45 102 -45 140q0 53 32 81q35 29 85 29q40 0 73 -29q31 -26 31 -79q0 -46 -36 -130q-37 -85 -44 -153q19 9 92.5 46.5t157 82t155 84t86.5 53.5q97 83 139 100q46 21 93 21q44 0 75 -23t31 -55q0 -39 -44 -69q-47 -31 -227 -60
q-27 -5 -107 -37.5t-169 -71t-164.5 -71.5t-92.5 -39q84 -30 176 -41q163 -23 217 -57q51 -34 51 -75q0 -32 -30 -54q-33 -22 -72 -22q-41 0 -91 22q-52 21 -137 97q-58 52 -139 95q0 -30 14.5 -125.5t29.5 -130.5q50 -120 50 -165q0 -42 -34 -70q-33 -29 -70 -29
q-50 0 -92 30q-28 20 -28 70t30 118q16 35 20 122.5t9 100.5q8 30 14 79q-93 -49 -141 -90q-101 -85 -151 -107q-13 -7 -23 -9l-71 163q8 2 19 7q40 13 169 32q84 14 166 39q-78 29 -177 44q-172 27 -208 49q-63 34 -63 83q0 26 32 51q30 23 71 23q47 0 97 -22
q49 -21 126 -87q77 -67 154 -102z" />
    <glyph glyph-name="parenleft" unicode="(" horiz-adv-x="1739" 
d="M680 -29q-25 16 -49 31t-45 32q-198 149 -304 353q-109 201 -109 422q0 318 211 584q123 155 296 262v-93q-17 -17 -25 -27q-107 -117 -162 -308q-54 -193 -54 -391q0 -18 0.5 -34t0.5 -32h1217v-25h-1215q7 -177 42 -310q39 -150 88 -230q44 -75 108 -138v-96z" />
    <glyph glyph-name="parenright" unicode=")" 
d="M178 529l331 107l-254 85v49l1480 482v-90l-1273 -416l192 -63l1005 328v-90l-1274 -415l1274 -420v-92l-1481 485v50z" />
    <glyph glyph-name="less" unicode="&#x3c;" 
d="M178 529l331 107l-254 85v49l1480 482v-90l-1273 -416l192 -63l1005 328v-90l-1274 -415l1274 -420v-92l-1481 485v50z" />
    <glyph glyph-name="asciitilde" unicode="~" horiz-adv-x="1792" 
d="M1525 2008h61q-6 -135 -100 -211q39 12 76 38q70 48 83 142h62q-7 -136 -102 -211q-98 -75 -235 -75q-66 0 -137 16q-47 10 -98 26q-17 2 -21 4q-86 20 -377 110q-29 7 -69 20q-79 15 -112 15q-96 0 -163 -45t-92 -145h-61q5 128 89 204q-30 -9 -55 -28q-65 -42 -94 -145
h-61q8 139 101 214q93 73 220 73q64 0 125 -14q31 -8 67 -16.5t78 -20.5q139 -31 352 -99q40 -15 96 -29q62 -15 110 -15q103 0 173 49q72 50 84 143z" />
    <glyph glyph-name="quotedbl" unicode="&#x22;" horiz-adv-x="1247" 
d="M1122 1908v-40q-139 -60 -183 -107q-44 -48 -44 -112q0 -27 15 -43q17 -14 32 -14q19 0 46 8q32 8 60 8q56 0 98 -30q42 -32 42 -75q0 -51 -53 -88q-52 -37 -130 -37q-92 0 -164 59q-8 6 -10 10q8 8 6 5q51 34 51 85q0 45 -41 76q-34 24 -71 30q19 74 86 138
q89 89 260 127zM829 1448q-2 0 -3.5 2t-2.5 3q1 -1 2.5 -3t3.5 -2zM823 1453q-3 3 -3 4q0 -1 3 -4zM817 1459q0 1 -1 1q1 0 1 -1zM815 1463q-3 2 -5 4.5t-3 4.5q1 -2 3 -4.5t5 -4.5zM800 1480q-1 3 -3 5t-2 5q0 -3 2 -5t3 -5zM792 1494l-6 10q0 -1 1 -2t1 -2v0v0l0.5 -0.5
l0.5 -0.5q0 -1 1 -1v-2v0q0 -1 1 -1.5l1 -0.5v0v0zM782 1511v1.5v0.5v-0.5v-1.5zM781 1515v1.5v1.5v-3zM780 1518q0 2 -1 3t-1 4q0 -3 1 -4t1 -3zM776 1531v1v1v-2zM774 1537q0 4 -1 5q1 -1 1 -5zM772 1550v0.5v2.5v-2.5v-0.5zM770 1555v1.5v1.5v-1.5v-1.5zM769 1589v0.5
v0.5v-0.5v-0.5zM769 1593v0.5v0.5v-0.5v-0.5zM769 1597v0v1v-1v0zM770 1602v1.5v0.5v-2zM770 1610v1v1v-1v-1zM770 1616q1 1 3 9q-2 -8 -3 -9zM773 1629q0 1 0.5 2t0.5 2q0 -1 -0.5 -2t-0.5 -2zM774 1636v0.5v0.5v-0.5v-0.5zM776 1640v0v1v-1v0zM827 1947v-41
q-125 -49 -173 -100q-53 -52 -53 -112q0 -38 14 -50q13 -15 29 -15q15 0 49 8q26 8 55 8q12 0 28 -2q-7 -34 -7 -59q0 -83 62 -137l2 2q-50 -33 -122 -33q-91 0 -166 60q-75 58 -75 148q0 102 91 192q91 88 266 131zM777 1643h1.5h2.5h-2.5h-1.5zM782 1641h1h1h-2zM790 1640
q3 0 5 -1q-2 1 -5 1zM796 1639v0v0v0zM808 1635q1 -1 8 -3q-7 2 -8 3zM820 1629v0v0v0zM829 1625l6 -4zM837 1620q1 0 1.5 -0.5t1.5 -0.5q-1 0 -1.5 0.5t-1.5 0.5zM840 1619q3 -2 7 -6q-4 4 -7 6zM837 1452q0 -1 -1 -1q1 0 1 1zM836 1451v0v0v0v0zM836 1451h-0.5h-0.5h0.5
h0.5zM835 1449h-0.5h-1.5h1.5h0.5z" />
    <glyph glyph-name="quotesingle" unicode="'" horiz-adv-x="1054" 
d="M784 1694q-57 0 -98 31q-43 32 -43 77q0 50 43 81q60 39 138 39q93 0 165 -58l15 -31v-444h-20v333q-37 -12 -99 -20t-101 -8z" />
    <glyph glyph-name="plus" unicode="+" horiz-adv-x="1815" 
d="M930 107v516h-452v84h452v324h-58v192h227v-192h-59v-324h689v-84h-689v-516h-110z" />
    <glyph glyph-name="comma" unicode="," horiz-adv-x="1042" 
d="M584 613q214 -55 311 -145q98 -90 98 -197q0 -100 -71 -157q-71 -60 -161 -60q-74 0 -126 36q-51 36 -51 87q0 52 40 82q40 31 107 31q24 0 51 -10q56 -21 68 -21q7 0 18 9q12 15 12 34q0 82 -76 157q-80 73 -220 109v45z" />
    <glyph glyph-name="slash" unicode="/" horiz-adv-x="1021" 
d="M564 -242v46q141 37 218 110q78 71 78 154q0 21 -13 34q-11 9 -19 9q-12 0 -66 -21q-29 -9 -52 -9q-68 0 -107 30t-39 82q0 50 48 85q-6 3 -10.5 6.5t-9.5 6.5q-58 45 -58 105t58 103q59 43 138 43q81 0 140 -43q57 -41 57 -103t-57 -105q6 2 -8 -5q17 -11 40 -30
q71 -59 71 -157q0 -104 -98 -196q-96 -90 -311 -145z" />
    <glyph glyph-name="exclam" unicode="!" horiz-adv-x="1079" 
d="M1028 82v-38q-231 24 -374 141q-144 117 -144 258q0 72 32 173q31 93 31 153q0 73 -82 138t-231 79v26l129 -7q183 -53 286 -149q5 -8 11 -10q56 39 88 88q57 86 34 158q-16 48 -78 135q-61 79 -86 154q-44 134 54 290q100 157 310 251l11 -34q-143 -78 -194 -165
q-50 -87 -24 -159q17 -56 81 -144q59 -83 83 -150q33 -97 -32 -225q-60 -116 -222 -229q67 -79 67 -165q0 -75 -30 -169q-31 -99 -31 -161q0 -80 75 -144q73 -67 236 -95z" />
  </font>
</defs>
</svg>
